<svg width="135" height="88" viewBox="0 0 135 88" fill="none" xmlns="http://www.w3.org/2000/svg">
<path d="M83.2528 45.2727H85.0767V51.358C85.0767 51.9205 84.9503 52.4091 84.6974 52.8239C84.4474 53.2386 84.0994 53.5582 83.6534 53.7827C83.2074 54.0071 82.6889 54.1193 82.098 54.1193C81.5724 54.1193 81.0952 54.027 80.6662 53.8423C80.2401 53.6548 79.902 53.3707 79.652 52.9901C79.402 52.6065 79.2784 52.125 79.2812 51.5455H81.1179C81.1236 51.7756 81.1705 51.973 81.2585 52.1378C81.3494 52.2997 81.473 52.4247 81.6293 52.5128C81.7884 52.598 81.9759 52.6406 82.1918 52.6406C82.419 52.6406 82.6108 52.5923 82.767 52.4957C82.9261 52.3963 83.0469 52.2514 83.1293 52.0611C83.2116 51.8707 83.2528 51.6364 83.2528 51.358V45.2727ZM94.6222 49.6364C94.6222 50.5881 94.4418 51.3977 94.081 52.0653C93.723 52.733 93.2344 53.2429 92.6151 53.5952C91.9986 53.9446 91.3054 54.1193 90.5355 54.1193C89.7599 54.1193 89.0639 53.9432 88.4474 53.5909C87.831 53.2386 87.3438 52.7287 86.9858 52.0611C86.6278 51.3935 86.4489 50.5852 86.4489 49.6364C86.4489 48.6847 86.6278 47.875 86.9858 47.2074C87.3438 46.5398 87.831 46.0312 88.4474 45.6818C89.0639 45.3295 89.7599 45.1534 90.5355 45.1534C91.3054 45.1534 91.9986 45.3295 92.6151 45.6818C93.2344 46.0312 93.723 46.5398 94.081 47.2074C94.4418 47.875 94.6222 48.6847 94.6222 49.6364ZM92.7514 49.6364C92.7514 49.0199 92.6591 48.5 92.4744 48.0767C92.2926 47.6534 92.0355 47.3324 91.7031 47.1136C91.3707 46.8949 90.9815 46.7855 90.5355 46.7855C90.0895 46.7855 89.7003 46.8949 89.3679 47.1136C89.0355 47.3324 88.777 47.6534 88.5923 48.0767C88.4105 48.5 88.3196 49.0199 88.3196 49.6364C88.3196 50.2528 88.4105 50.7727 88.5923 51.196C88.777 51.6193 89.0355 51.9403 89.3679 52.1591C89.7003 52.3778 90.0895 52.4872 90.5355 52.4872C90.9815 52.4872 91.3707 52.3778 91.7031 52.1591C92.0355 51.9403 92.2926 51.6193 92.4744 51.196C92.6591 50.7727 92.7514 50.2528 92.7514 49.6364ZM94.9503 45.2727H97.017L99.0071 49.0312H99.0923L101.082 45.2727H103.149L99.9659 50.9148V54H98.1335V50.9148L94.9503 45.2727ZM80.0568 69V60.2727H85.3239V61.2102H81.1136V64.1591H85.0511V65.0966H81.1136V68.0625H85.392V69H80.0568ZM87.5866 60.2727L90.1776 67.6193H90.2798L92.8707 60.2727H93.9787L90.7741 69H89.6832L86.4787 60.2727H87.5866ZM95.3381 69V60.2727H100.605V61.2102H96.3949V64.1591H100.332V65.0966H96.3949V68.0625H100.673V69H95.3381ZM109.43 60.2727V69H108.408L103.652 62.1477H103.567V69H102.51V60.2727H103.533L108.305 67.142H108.391V60.2727H109.43ZM111.068 61.2102V60.2727H117.613V61.2102H114.869V69H113.812V61.2102H111.068ZM126.245 64.6364C126.245 65.5568 126.078 66.3523 125.746 67.0227C125.414 67.6932 124.958 68.2102 124.378 68.5739C123.799 68.9375 123.137 69.1193 122.392 69.1193C121.648 69.1193 120.986 68.9375 120.407 68.5739C119.827 68.2102 119.371 67.6932 119.039 67.0227C118.706 66.3523 118.54 65.5568 118.54 64.6364C118.54 63.7159 118.706 62.9205 119.039 62.25C119.371 61.5795 119.827 61.0625 120.407 60.6989C120.986 60.3352 121.648 60.1534 122.392 60.1534C123.137 60.1534 123.799 60.3352 124.378 60.6989C124.958 61.0625 125.414 61.5795 125.746 62.25C126.078 62.9205 126.245 63.7159 126.245 64.6364ZM125.222 64.6364C125.222 63.8807 125.096 63.2429 124.843 62.723C124.593 62.2031 124.253 61.8097 123.824 61.5426C123.398 61.2756 122.921 61.142 122.392 61.142C121.864 61.142 121.385 61.2756 120.956 61.5426C120.53 61.8097 120.191 62.2031 119.938 62.723C119.688 63.2429 119.563 63.8807 119.563 64.6364C119.563 65.392 119.688 66.0298 119.938 66.5497C120.191 67.0696 120.53 67.4631 120.956 67.7301C121.385 67.9972 121.864 68.1307 122.392 68.1307C122.921 68.1307 123.398 67.9972 123.824 67.7301C124.253 67.4631 124.593 67.0696 124.843 66.5497C125.096 66.0298 125.222 65.392 125.222 64.6364ZM132.794 62.4545C132.743 62.0227 132.536 61.6875 132.172 61.4489C131.809 61.2102 131.363 61.0909 130.834 61.0909C130.448 61.0909 130.11 61.1534 129.82 61.2784C129.533 61.4034 129.309 61.5753 129.147 61.794C128.988 62.0128 128.908 62.2614 128.908 62.5398C128.908 62.7727 128.963 62.973 129.074 63.1406C129.188 63.3054 129.333 63.4432 129.509 63.554C129.685 63.6619 129.87 63.7514 130.063 63.8224C130.256 63.8906 130.434 63.946 130.596 63.9886L131.482 64.2273C131.709 64.2869 131.962 64.3693 132.24 64.4744C132.522 64.5795 132.79 64.723 133.046 64.9048C133.304 65.0838 133.517 65.3139 133.685 65.5952C133.853 65.8764 133.936 66.2216 133.936 66.6307C133.936 67.1023 133.813 67.5284 133.566 67.9091C133.321 68.2898 132.963 68.5923 132.492 68.8168C132.023 69.0412 131.453 69.1534 130.783 69.1534C130.158 69.1534 129.617 69.0526 129.159 68.8509C128.705 68.6491 128.347 68.3679 128.086 68.0071C127.827 67.6463 127.681 67.2273 127.647 66.75H128.738C128.766 67.0795 128.877 67.3523 129.07 67.5682C129.266 67.7812 129.513 67.9403 129.811 68.0455C130.113 68.1477 130.436 68.1989 130.783 68.1989C131.186 68.1989 131.549 68.1335 131.87 68.0028C132.191 67.8693 132.445 67.6847 132.632 67.4489C132.82 67.2102 132.914 66.9318 132.914 66.6136C132.914 66.3239 132.833 66.0881 132.671 65.9062C132.509 65.7244 132.296 65.5767 132.032 65.4631C131.767 65.3494 131.482 65.25 131.175 65.1648L130.101 64.858C129.419 64.6619 128.88 64.3821 128.482 64.0185C128.084 63.6548 127.885 63.179 127.885 62.5909C127.885 62.1023 128.017 61.6761 128.282 61.3125C128.549 60.946 128.907 60.6619 129.355 60.4602C129.807 60.2557 130.311 60.1534 130.868 60.1534C131.431 60.1534 131.931 60.2543 132.368 60.456C132.806 60.6548 133.152 60.9276 133.408 61.2741C133.667 61.6207 133.803 62.0142 133.817 62.4545H132.794Z" fill="#E96244"/>
<path fill-rule="evenodd" clip-rule="evenodd" d="M92.7119 6.84223C88.6255 2.48334 84.1738 -0.55792 79.5259 0.281436C74.7852 1.13739 72.2686 5.5578 70.8193 9.49774C69.2539 13.7531 68.2593 19.279 67.5479 25.1691C67.3872 26.5007 67.2393 27.8642 67.1021 29.2509C59.0898 29.6918 50.1411 29.5056 41.4702 28.9631C40.4946 18.5156 31.7021 10.3383 21 10.3383C9.64502 10.3383 0.439941 19.5434 0.439941 30.8984C0.439941 42.2534 9.64502 51.4584 21 51.4584C30.3608 51.4584 38.2607 45.2023 40.7466 36.643C49.3242 37.1865 58.2607 37.3962 66.4473 37.0034C66.2744 39.3723 66.1191 41.7621 65.9712 44.1352L65.835 46.3454L65.7324 48.0295C65.4214 53.1511 65.1201 58.1047 64.7236 62.6132C64.2231 68.3005 63.5928 72.9877 62.6919 76.2153C62.5166 76.843 62.3423 77.3735 62.1748 77.8168C61.9844 78.3198 61.8022 78.7106 61.6362 79.0051C61.5474 78.9379 61.4468 78.8579 61.3345 78.7626C60.4561 78.0156 59.2637 76.6613 57.7461 74.4274C52.6709 66.9555 49.4741 61.3508 47.604 57.2182C45.7866 53.2014 45.4111 50.9753 45.4507 49.944C45.9292 49.9687 46.7158 50.1166 47.7598 50.538C49.7344 51.3347 51.9805 50.3798 52.7773 48.4055C53.5742 46.4311 52.6191 44.1848 50.645 43.3881C48.6943 42.601 46.0483 41.8972 43.5298 42.4008C42.1743 42.6721 40.7432 43.3212 39.6133 44.592C38.4883 45.8571 37.9438 47.4221 37.7881 49.0283C37.4956 52.0507 38.5151 55.8334 40.5796 60.3967C42.7012 65.0854 46.1621 71.0949 51.3682 78.7595C53.064 81.2558 54.708 83.248 56.3398 84.6359C57.9189 85.9787 59.9741 87.1655 62.377 87.0161C64.9414 86.8566 66.6978 85.2717 67.7793 83.7099C68.8394 82.1796 69.5693 80.2538 70.1182 78.2878C71.2256 74.3198 71.8999 69.0168 72.4038 63.2888C72.8105 58.666 73.1196 53.5764 73.4316 48.444C73.5093 47.1679 73.5869 45.8893 73.6665 44.6144C73.7915 42.6044 73.9209 40.601 74.061 38.623C74.1133 37.8823 74.167 37.1452 74.2227 36.4125C75.083 36.3198 75.9287 36.218 76.7588 36.1069C77.2773 36.0375 77.79 35.9645 78.2959 35.8876C82.5176 35.247 86.4263 34.3256 89.7065 33.0131C92.9355 31.7214 95.9185 29.9069 97.8374 27.2536C99.8955 24.4074 100.432 21.0048 99.4087 17.3952C98.4419 13.9831 96.1216 10.4789 92.7119 6.84223ZM77.1387 28.2651C76.4155 28.3749 75.6763 28.4765 74.9219 28.5703C75.0107 27.7321 75.104 26.9059 75.2021 26.0934C75.8965 20.3452 76.8096 15.5461 78.0552 12.1596C79.4175 8.45746 80.6162 7.91913 80.8955 7.86859C81.2676 7.80146 83.1411 7.90619 87.0874 12.1154C90.1035 15.3327 91.502 17.7726 91.9912 19.498C92.4243 21.0256 92.1548 21.9538 91.5898 22.7355C90.8848 23.7101 89.4268 24.8207 86.8423 25.8549C84.3086 26.8686 81.0312 27.6743 77.1387 28.2651ZM21 47.9999C30.3887 47.9999 38 40.3889 38 30.9999C38 21.611 30.3887 13.9999 21 13.9999C11.6113 13.9999 4 21.611 4 30.9999C4 40.3889 11.6113 47.9999 21 47.9999Z" fill="#E96244"/>
</svg>
